<?xml version="1.0" encoding="utf-8"?>
<!-- Generator: Adobe Illustrator 26.2.1, SVG Export Plug-In . SVG Version: 6.00 Build 0)  -->
<svg version="1.1" id="Layer_1" xmlns="http://www.w3.org/2000/svg" xmlns:xlink="http://www.w3.org/1999/xlink" x="0px" y="0px"
	 viewBox="0 0 191.9 192" style="enable-background:new 0 0 191.9 192;" xml:space="preserve">
<style type="text/css">
	.st0{fill:#FFFFFF;}
</style>
<path class="st0" d="M95.7,192c-0.9,0-1.7,0-2.4,0c-20,0-40.1,0-60.1,0C14.7,192,0,177.3,0,158.7C0,116.9,0,75,0,33.2
	C0,14.7,14.7,0,33.3,0C75.2,0,117.1,0,159,0c18,0,32.9,14.8,32.9,32.8c0,42.1,0,84.2,0,126.3c0,18.1-14.8,32.9-33,32.9
	c-10.3,0-20.5,0-30.8,0c-0.7,0-1.4,0-2.1,0c0-24.2,0-48.3,0-72.5c10.6,0,21.1,0,31.7,0c0-10.7,0-21.3,0-32c-10.6,0-21.1,0-31.7,0
	c-0.1-0.7-0.2-1.2-0.2-1.6c0-3.8-0.2-7.6,0.1-11.3c0.2-2,0.9-4,1.9-5.8c1-1.8,2.8-2.6,4.9-2.6c7.6,0.1,15.1,0,22.7,0
	c0.7,0,1.4,0,2.2,0c0-10.7,0-21.2,0-31.8c-0.1-0.1-0.3-0.2-0.4-0.2c-9.1,0-18.2-0.3-27.2,0.1c-10.6,0.5-18.7,5.9-25,14.1
	c-6,7.7-8.9,16.6-9,26.3c0,4.1,0,8.3,0,12.7c-7.9,0-15.6,0-23.4,0c0,10.8,0,21.3,0,32c7.7,0,15.4,0,23.2,0
	C95.7,143.6,95.7,167.7,95.7,192z"/>
</svg>
