<?xml version="1.0" encoding="utf-8"?>
<!-- Generator: Adobe Illustrator 26.2.1, SVG Export Plug-In . SVG Version: 6.00 Build 0)  -->
<svg version="1.1" id="Layer_1" xmlns="http://www.w3.org/2000/svg" xmlns:xlink="http://www.w3.org/1999/xlink" x="0px" y="0px"
	 viewBox="0 0 778.2 98" style="enable-background:new 0 0 778.2 98;" xml:space="preserve">
<style type="text/css">
	.st0{fill:#FFFFFF;}
</style>
<g>
	<path class="st0" d="M117.4,12.8c-29-18.4-74.5-16.7-100,3.6c-23.9,19-23.7,49.6,4.3,68.6C62.3,112.5,140,94.6,140,49.1
		C140,33.6,130.5,21.1,117.4,12.8z M32.8,82.8C21.3,77.2,10.7,67.9,7.8,55.4C2.5,31.8,26.6,13.3,53.6,8.6c0.9-0.2,4.8,0.7,8.1,4.7
		c5.8,7,6.2,17.7,2.5,26.1C61.7,45,55.8,51.6,51.5,56c-6.9,7.1-12.9,11.9-13.7,12.6c2.2,1.8,4,3,5.2,5.1c1.1,2,0.8,3.8-0.9,5.3
		c-2.4,2.1-5.3,2.8-8.8,3.8C33.2,82.9,33,82.9,32.8,82.8z M42.1,86.6c-0.7-0.2-3.4-1.2-4.1-1.5c4.4,0.3,10,0.7,15.6-0.1
		c3.2-0.5,7.8-1.8,8.4-5c0.4-2.2,0-4.2-2-5.6c-1.7-1.2-3.5-2.2-5.3-3.3c-5.1-3-5.3-2.8-6.5-4.1c-0.5-0.5-0.5-0.9,0.1-1.2
		c10.4-6.3,73.9-24.8,61.3-46.6c-1.2-2-2.8-3.7-3.4-4.3c0,0,0-0.1,0-0.2c4.4,2.3,22.1,10.6,26,27.9C139.9,76.6,87.1,101.3,42.1,86.6
		z"/>
	<polygon class="st0" points="148.5,37.3 156.6,37.3 156.6,33.2 160.7,33.2 160.7,65.9 156.6,65.9 156.6,74.1 173,74.1 173,65.9 
		168.9,65.9 168.9,33.2 173,33.2 173,37.3 181.1,37.3 181.1,25.1 148.5,25.1 	"/>
	<polygon class="st0" points="204.6,33.2 208.7,33.2 208.7,45.5 196.5,45.5 196.5,33.2 200.5,33.2 200.5,25.1 184.2,25.1 
		184.2,33.2 188.3,33.2 188.3,65.9 184.2,65.9 184.2,74.1 200.5,74.1 200.5,65.9 196.5,65.9 196.5,53.7 208.7,53.7 208.7,65.9 
		204.6,65.9 204.6,74.1 221,74.1 221,65.9 216.9,65.9 216.9,33.2 221,33.2 221,25.1 204.6,25.1 	"/>
	<polygon class="st0" points="225.3,33.2 229.3,33.2 229.3,65.9 225.3,65.9 225.3,74.1 257.9,74.1 257.9,61.8 249.8,61.8 
		249.8,65.9 237.5,65.9 237.5,53.7 249.8,53.7 249.8,45.5 237.5,45.5 237.5,33.2 249.8,33.2 249.8,37.3 257.9,37.3 257.9,25.1 
		225.3,25.1 	"/>
	<polygon class="st0" points="275.7,25.1 271.6,29.2 271.6,70 275.7,74.1 296.1,74.1 300.2,70 300.2,61.8 292,61.8 292,65.9 
		279.8,65.9 279.8,33.2 292,33.2 292,37.3 300.2,37.3 300.2,29.2 296.1,25.1 	"/>
	<path class="st0" d="M308,25.1l-4.1,4.1V70l4.1,4.1h20.4l4.1-4.1V29.2l-4.1-4.1H308z M324.3,65.9h-12.2V33.2h12.2V65.9z"/>
	<polygon class="st0" points="337.4,33.2 341.5,33.2 341.5,65.9 337.4,65.9 337.4,74.1 353.8,74.1 353.8,65.9 349.7,65.9 
		349.7,53.7 361.9,53.7 361.9,45.5 349.7,45.5 349.7,33.2 361.9,33.2 361.9,37.3 370.1,37.3 370.1,25.1 337.4,25.1 	"/>
	<polygon class="st0" points="373.2,33.2 377.3,33.2 377.3,65.9 373.2,65.9 373.2,74.1 389.5,74.1 389.5,65.9 385.4,65.9 
		385.4,53.7 397.7,53.7 397.7,45.5 385.4,45.5 385.4,33.2 397.7,33.2 397.7,37.3 405.8,37.3 405.8,25.1 373.2,25.1 	"/>
	<polygon class="st0" points="408.9,33.2 413,33.2 413,65.9 408.9,65.9 408.9,74.1 441.6,74.1 441.6,61.8 433.4,61.8 433.4,65.9 
		421.2,65.9 421.2,53.7 433.4,53.7 433.4,45.5 421.2,45.5 421.2,33.2 433.4,33.2 433.4,37.3 441.6,37.3 441.6,25.1 408.9,25.1 	"/>
	<polygon class="st0" points="446.3,33.2 450.3,33.2 450.3,65.9 446.3,65.9 446.3,74.1 478.9,74.1 478.9,61.8 470.8,61.8 
		470.8,65.9 458.5,65.9 458.5,53.7 470.8,53.7 470.8,45.5 458.5,45.5 458.5,33.2 470.8,33.2 470.8,37.3 478.9,37.3 478.9,25.1 
		446.3,25.1 	"/>
	<polygon class="st0" points="487.1,25.1 483,29.2 483,49.6 487.1,53.7 503.4,53.7 503.4,65.9 491.2,65.9 491.2,61.8 483,61.8 
		483,70 487.1,74.1 507.5,74.1 511.6,70 511.6,49.6 507.5,45.5 491.2,45.5 491.2,33.2 503.4,33.2 503.4,37.3 511.6,37.3 511.6,29.2 
		507.5,25.1 	"/>
	<polygon class="st0" points="536.9,33.2 541,33.2 541,45.5 528.8,45.5 528.8,33.2 532.8,33.2 532.8,25.1 516.5,25.1 516.5,33.2 
		520.6,33.2 520.6,65.9 516.5,65.9 516.5,74.1 532.8,74.1 532.8,65.9 528.8,65.9 528.8,53.7 541,53.7 541,65.9 536.9,65.9 
		536.9,74.1 553.3,74.1 553.3,65.9 549.2,65.9 549.2,33.2 553.3,33.2 553.3,25.1 536.9,25.1 	"/>
	<path class="st0" d="M562.4,25.1l-4.1,4.1V70l4.1,4.1h20.4l4.1-4.1V29.2l-4.1-4.1H562.4z M578.8,65.9h-12.2V33.2h12.2V65.9z"/>
	<path class="st0" d="M591.9,25.1v8.2h4.1v32.7h-4.1v8.2h16.3v-8.2h-4.1v-8.2h16.3l4.1-4.1V29.2l-4.1-4.1H591.9z M616.4,49.6h-12.2
		V33.2h12.2V49.6z"/>
	<polygon class="st0" points="633.4,25.1 629.3,29.2 629.3,49.6 633.4,53.7 649.7,53.7 649.7,65.9 637.4,65.9 637.4,61.8 
		629.3,61.8 629.3,70 633.4,74.1 653.8,74.1 657.9,70 657.9,49.6 653.8,45.5 637.4,45.5 637.4,33.2 649.7,33.2 649.7,37.3 
		657.9,37.3 657.9,29.2 653.8,25.1 	"/>
	<rect x="660.6" y="65.9" class="st0" width="8.2" height="8.2"/>
	<polygon class="st0" points="675.6,25.1 671.6,29.2 671.6,70 675.6,74.1 696.1,74.1 700.1,70 700.1,61.8 692,61.8 692,65.9 
		679.7,65.9 679.7,33.2 692,33.2 692,37.3 700.1,37.3 700.1,29.2 696.1,25.1 	"/>
	<path class="st0" d="M707.9,25.1l-4.1,4.1V70l4.1,4.1h20.4l4.1-4.1V29.2l-4.1-4.1H707.9z M724.3,65.9H712V33.2h12.2V65.9z"/>
	<polygon class="st0" points="778.2,33.2 778.2,25.1 766,25.1 757.8,41.9 749.6,25.1 737.4,25.1 737.4,33.2 741.5,33.2 741.5,65.9 
		737.4,65.9 737.4,74.1 753.7,74.1 753.7,65.9 749.6,65.9 749.6,44.5 757.8,61.3 766,44.5 766,65.9 761.9,65.9 761.9,74.1 
		778.2,74.1 778.2,65.9 774.1,65.9 774.1,33.2 	"/>
</g>
</svg>
