<?xml version="1.0" encoding="utf-8"?>
<!-- Generator: Adobe Illustrator 26.2.1, SVG Export Plug-In . SVG Version: 6.00 Build 0)  -->
<svg version="1.1" id="Layer_1" xmlns="http://www.w3.org/2000/svg" xmlns:xlink="http://www.w3.org/1999/xlink" x="0px" y="0px"
	 viewBox="0 0 195.8 195.8" style="enable-background:new 0 0 195.8 195.8;" xml:space="preserve">
<style type="text/css">
	.st0{fill:#FFFFFF;}
</style>
<path class="st0" d="M97.9,195.8c-20.4,0-40.7,0-61.1,0C16.2,195.7,0,179.6,0,159c0-40.7,0-81.5,0-122.2C0,16.2,16.2,0,36.8,0
	c40.7,0,81.5,0,122.2,0c20.6,0,36.8,16.2,36.8,36.8c0,40.7,0,81.5,0,122.2c0,20.6-16.2,36.8-36.8,36.8
	C138.6,195.8,118.3,195.8,97.9,195.8z M45.9,86.4c0.8,11.9,7.1,19.2,17.9,23.7c-2.9,0.1-5.9,0.3-9.3,0.4c4,9.9,11.3,15,22.1,16.3
	c-10.3,7.8-21.4,10.8-34,10.2c0.6,0.7,0.8,0.9,1,1.1c1.2,0.7,2.3,1.4,3.5,2c15.4,7.7,31.5,9.4,48.2,5.3c29.4-7.2,51-34.9,51-65.6
	c0-2.9,0.8-4.7,3-6.5c3-2.5,5.6-5.6,8.3-8.5c-0.2-0.2-0.3-0.3-0.5-0.5c-3.8,1-7.6,2-11.5,3c3.7-3.7,7.3-7.1,8.8-12.4
	c-4,1.5-7.7,2.8-11.3,4.2c-2.1,0.8-3.7,0.4-5.5-1.1c-7.1-5.9-15.3-7.4-23.9-4c-8.7,3.4-13.9,10-15.2,19.3c-0.4,2.7-0.1,5.5-0.1,8.6
	c-19.9-1.3-36.2-9.8-49.5-25c-5.7,12.6-3.1,22.8,6.3,32.2C52.4,88.1,49.4,87.3,45.9,86.4z"/>
</svg>
