<?xml version="1.0" encoding="utf-8"?>
<!-- Generator: Adobe Illustrator 26.2.1, SVG Export Plug-In . SVG Version: 6.00 Build 0)  -->
<svg version="1.1" id="Layer_1" xmlns="http://www.w3.org/2000/svg" xmlns:xlink="http://www.w3.org/1999/xlink" x="0px" y="0px"
	 viewBox="0 0 195.8 195.8" style="enable-background:new 0 0 195.8 195.8;" xml:space="preserve">
<style type="text/css">
	.st0{fill:#FFFFFF;}
</style>
<path class="st0" d="M158.9,0C118.2,0,77.5,0,36.8,0C16.2,0,0,16.2,0,36.8C0,77.5,0,118.3,0,159c0,20.6,16.2,36.8,36.8,36.8
	c20.4,0,40.7,0,61.1,0s40.7,0,61.1,0c20.6,0,36.8-16.2,36.8-36.8c0-40.7,0-81.5,0-122.2C195.7,16.2,179.5,0,158.9,0z M97.9,147.6
	c-27.4,0-49.7-22.3-49.7-49.8s22.3-49.7,49.7-49.7c27.4,0,49.8,22.3,49.8,49.7S125.3,147.6,97.9,147.6z M157.8,55.1
	c-6.5,0-11.8-5.3-11.8-11.8c0-6.5,5.3-11.8,11.8-11.8c6.5,0,11.8,5.3,11.8,11.8C169.6,49.9,164.3,55.1,157.8,55.1z M97.9,65.1
	c-18.1,0-32.7,14.7-32.7,32.7c0,18.1,14.7,32.8,32.7,32.8c18.1,0,32.8-14.7,32.8-32.8C130.6,79.8,116,65.1,97.9,65.1z"/>
</svg>
