<?xml version="1.0" encoding="utf-8"?>
<!-- Generator: Adobe Illustrator 26.2.1, SVG Export Plug-In . SVG Version: 6.00 Build 0)  -->
<svg version="1.1" id="Layer_1" xmlns="http://www.w3.org/2000/svg" xmlns:xlink="http://www.w3.org/1999/xlink" x="0px" y="0px"
	 viewBox="0 0 783 548.4" style="enable-background:new 0 0 783 548.4;" xml:space="preserve">
<style type="text/css">
	.st0{fill:#FFFFFF;}
</style>
<g>
	<path class="st0" d="M656.5,71.6C494.1-31.4,240.1-22,97.2,91.5C-36.7,197.9-35.4,369,121,475.1c227.6,154.3,662,54.2,662-200.3
		C783,188.1,730,118.1,656.5,71.6z M183.4,463.2c-64.2-31.4-123.6-83.4-139.5-153.1C13.8,177.9,148.8,74.3,299.8,48.1
		c5.2-0.9,26.6,3.9,45.2,26.4c32.3,39,34.8,98.8,13.8,146.2c-13.9,31.3-46.7,68.3-70.6,92.9c-38.8,39.8-72.3,66.5-76.6,70.5
		c12.5,9.9,22.6,16.7,29.3,28.4c6.3,11.1,4.7,21.3-4.9,29.8c-13.2,11.8-29.6,15.5-49.1,21.2C185.9,463.9,184.4,463.7,183.4,463.2z
		 M235.4,484.4c-3.8-1.3-19.2-6.7-22.9-8.5c24.7,1.4,56,4,87.2-0.8c18.1-2.8,43.9-9.9,47.1-27.8c2.2-12.3-0.2-23.7-11-31.3
		c-9.5-6.6-19.7-12.3-29.7-18.2c-28.5-16.8-29.7-15.7-36.6-22.9c-2.7-2.8-2.6-4.8,0.7-6.9c58.2-35.5,413.4-139,342.6-260.6
		c-6.6-11.4-15.9-20.5-19.2-24.2c-0.1-0.1-0.1-0.3-0.2-1c24.5,13,123.4,59.5,145.5,156.3C782.3,428.6,487.4,567,235.4,484.4z"/>
</g>
</svg>
